<svg width="350" height="96" viewBox="0 0 350 96" version="1.1" xmlns="http://www.w3.org/2000/svg" xmlns:xlink="http://www.w3.org/1999/xlink">
<title>smartcar-symbol-stroke-glow-icon</title>
<desc>Created using Figma</desc>
<g id="Canvas" transform="translate(-51387 -3727)">
<g id="smartcar-symbol-stroke-glow-icon">
<g id="Rectangle 15">
<use xlink:href="#path0_fill" transform="translate(51387 3774)" fill="url(#paint0_linear)"/>
</g>
<g id="Ellipse">
<use xlink:href="#path1_fill" transform="translate(51515 3728)" fill="#FFFFFF"/>
</g>
<g id="Subtract">
<use xlink:href="#path2_fill" transform="translate(51513 3727)" fill="#FFFFFF"/>
<mask id="mask0_outline_ins">
<use xlink:href="#path2_fill" fill="white" transform="translate(51513 3727)"/>
</mask>
<g mask="url(#mask0_outline_ins)">
<use xlink:href="#path3_stroke_2x" transform="translate(51513 3727)" fill="#3165EB"/>
</g>
</g>
</g>
</g>
<defs>
<linearGradient id="paint0_linear" x1="0" y1="0" x2="1" y2="0" gradientUnits="userSpaceOnUse" gradientTransform="matrix(358.974 -2.02909e-12 -2510.39 8015.74 1251.16 -4007.87)">
<stop offset="0" stop-color="#4E99F2" stop-opacity="0"/>
<stop offset="0.132597" stop-color="#4E99F2"/>
<stop offset="0.867403" stop-color="#3165EB"/>
<stop offset="1" stop-color="#3165EB" stop-opacity="0"/>
</linearGradient>
<path id="path0_fill" d="M 0 0.75C 0 0.335786 0.335786 0 0.75 0L 349.25 0C 349.664 0 350 0.335786 350 0.75C 350 1.16421 349.664 1.5 349.25 1.5L 0.75 1.5C 0.335786 1.5 0 1.16421 0 0.75Z"/>
<path id="path1_fill" d="M 94 47C 94 72.9574 72.9574 94 47 94C 21.0426 94 0 72.9574 0 47C 0 21.0426 21.0426 0 47 0C 72.9574 0 94 21.0426 94 47Z"/>
<path id="path2_fill" fill-rule="evenodd" d="M 0 48C 0 21.4924 21.4922 0 48.0039 0C 74.5117 0 96.0078 21.4924 96.0078 48C 96.0078 74.5076 74.5117 96 48.0039 96C 21.4922 96 0 74.5076 0 48ZM 80.7469 33.3687C 80.7464 33.3676 80.7458 33.3663 80.7453 33.3652C 75.1199 20.81 62.6204 12 48.0039 12C 33.383 12 20.8871 20.8105 15.262 33.3664C 15.2618 33.3668 15.2616 33.3671 15.2615 33.3675C 14.6956 34.6296 15.6604 36 17.043 36L 78.9648 36C 80.347 36 81.3077 34.6305 80.7469 33.3687ZM 14.0001 48.0789C 14 48.0789 14 48.0789 13.9999 48.0788C 12.8991 47.9918 11.9973 48.8963 12.0546 49.9984C 12.0546 49.9998 12.0547 50.0012 12.0548 50.0026C 12.9424 66.0509 24.4224 79.2502 39.5974 82.905C 39.5976 82.905 39.5978 82.9051 39.598 82.9051C 40.8125 83.1978 41.9411 82.2324 41.8555 80.9844C 41.8555 80.9841 41.8555 80.9837 41.8554 80.9833C 40.6287 63.3086 28.7968 49.2486 14.0001 48.0789ZM 54.1524 80.9833C 54.1524 80.9837 54.1523 80.9841 54.1523 80.9844C 54.0667 82.2323 55.1913 83.1977 56.4097 82.9051C 56.41 82.9051 56.4103 82.905 56.4106 82.9049C 71.5817 79.2501 83.0656 66.0505 83.9491 50.0021C 83.9492 50.001 83.9492 49.9999 83.9493 49.9988C 84.0108 48.8967 83.1051 47.992 82.0082 48.0788C 82.0079 48.0788 82.0077 48.0789 82.0074 48.0789C 67.207 49.2488 55.3791 63.3087 54.1524 80.9833ZM 48.1328 54.2585C 51.5156 54.2585 54.2578 51.5159 54.2578 48.1326C 54.2578 44.7493 51.5156 42.0066 48.1328 42.0066C 44.75 42.0066 42.0078 44.7493 42.0078 48.1326C 42.0078 51.5159 44.75 54.2585 48.1328 54.2585Z"/>
<path id="path3_stroke_2x" d="M 82.0082 48.0788L 82.1661 50.0726L 82.0082 48.0788ZM 82.0074 48.0789L 81.8498 46.0851L 82.0074 48.0789ZM 83.9491 50.0021L 81.9521 49.8922L 83.9491 50.0021ZM 83.9493 49.9988L 85.9462 50.1102L 83.9493 49.9988ZM 54.1523 80.9844L 52.157 80.8476L 54.1523 80.9844ZM 54.1524 80.9833L 56.1476 81.1218L 54.1524 80.9833ZM 56.4097 82.9051L 55.9427 80.9604L 56.4097 82.9051ZM 56.4106 82.9049L 56.879 84.8493L 56.4106 82.9049ZM 41.8555 80.9844L 39.8602 81.1212L 41.8555 80.9844ZM 41.8554 80.9833L 43.8506 80.8449L 41.8554 80.9833ZM 39.5974 82.905L 40.0656 80.9606L 39.5974 82.905ZM 39.598 82.9051L 39.1294 84.8494L 39.598 82.9051ZM 13.9999 48.0788L 13.8423 50.0726L 13.9999 48.0788ZM 14.0001 48.0789L 14.1577 46.0851L 14.0001 48.0789ZM 12.0546 49.9984L 10.0573 50.1022L 12.0546 49.9984ZM 12.0548 50.0026L 14.0518 49.8922L 12.0548 50.0026ZM 15.262 33.3664L 17.0872 34.1841L 15.262 33.3664ZM 15.2615 33.3675L 17.0864 34.1858L 15.2615 33.3675ZM 80.7453 33.3652L 82.5705 32.5474L 80.7453 33.3652ZM 80.7469 33.3687L 78.9193 34.181L 80.7469 33.3687ZM 48.0039 -2C 20.3877 -2 -2 20.3878 -2 48L 2 48C 2 22.5971 22.5967 2 48.0039 2L 48.0039 -2ZM 98.0078 48C 98.0078 20.3877 75.6161 -2 48.0039 -2L 48.0039 2C 73.4074 2 94.0078 22.5972 94.0078 48L 98.0078 48ZM 48.0039 98C 75.6161 98 98.0078 75.6123 98.0078 48L 94.0078 48C 94.0078 73.4028 73.4074 94 48.0039 94L 48.0039 98ZM -2 48C -2 75.6122 20.3877 98 48.0039 98L 48.0039 94C 22.5967 94 2 73.4029 2 48L -2 48ZM 48.0039 14C 61.7899 14 73.5994 22.3076 78.9201 34.1829L 82.5705 32.5474C 76.6404 19.3123 63.4509 10 48.0039 10L 48.0039 14ZM 17.0872 34.1841C 22.4077 22.3081 34.2136 14 48.0039 14L 48.0039 10C 32.5524 10 19.3665 19.313 13.4368 32.5487L 17.0872 34.1841ZM 17.043 34C 17.0325 34 17.0374 33.9985 17.0478 34.004C 17.0549 34.0079 17.0629 34.0141 17.0707 34.0256C 17.0789 34.0375 17.0914 34.062 17.0955 34.1002C 17.1001 34.1437 17.0904 34.1768 17.0864 34.1858L 13.4365 32.5493C 12.2243 35.2529 14.3421 38 17.043 38L 17.043 34ZM 78.9648 34L 17.043 34L 17.043 38L 78.9648 38L 78.9648 34ZM 78.9193 34.181C 78.9156 34.1727 78.9063 34.1409 78.9108 34.0989C 78.9147 34.0622 78.9268 34.0384 78.9349 34.0266C 78.9427 34.0153 78.9508 34.0087 78.9587 34.0045C 78.9697 33.9985 78.9752 34 78.9648 34L 78.9648 38C 81.6726 38 83.7718 35.2502 82.5745 32.5564L 78.9193 34.181ZM 14.0519 49.8945C 14.0536 49.9285 14.0379 49.9764 14.0014 50.0127C 13.9836 50.0303 13.9593 50.0471 13.9282 50.0588C 13.895 50.0713 13.8635 50.0743 13.8423 50.0726L 14.1576 46.0851C 11.8146 45.8998 9.93918 47.8317 10.0573 50.1022L 14.0519 49.8945ZM 40.0656 80.9606C 25.7247 77.5067 14.8892 65.0337 14.0518 49.8922L 10.0579 50.1131C 10.9956 67.0681 23.1201 80.9938 39.1291 84.8494L 40.0656 80.9606ZM 39.8602 81.1212C 39.8595 81.1117 39.8612 81.0878 39.8732 81.0601C 39.8839 81.0354 39.8992 81.0155 39.9169 81.0004C 39.9347 80.9853 39.9589 80.9715 39.9898 80.9637C 40.0241 80.9552 40.0531 80.9575 40.0665 80.9608L 39.1294 84.8494C 41.6769 85.4633 44.0274 83.4233 43.8508 80.8476L 39.8602 81.1212ZM 13.8425 50.0726C 27.3875 51.1434 38.6819 64.1454 39.8602 81.1218L 43.8506 80.8449C 42.5754 62.4718 30.206 47.3537 14.1577 46.0851L 13.8425 50.0726ZM 55.9427 80.9604C 55.9539 80.9577 55.9818 80.9551 56.016 80.9637C 56.047 80.9714 56.0719 80.9854 56.0903 81.0011C 56.1086 81.0168 56.1242 81.0371 56.1349 81.0619C 56.1467 81.0896 56.1482 81.1128 56.1476 81.1212L 52.157 80.8476C 51.9805 83.4216 54.3249 85.4626 56.8767 84.8499L 55.9427 80.9604ZM 81.9521 49.8922C 81.1186 65.0332 70.2797 77.5065 55.9422 80.9605L 56.879 84.8493C 72.8838 80.9937 85.0126 67.0679 85.9461 50.1121L 81.9521 49.8922ZM 82.1661 50.0726C 82.1066 50.0773 82.0426 50.0505 82.0045 50.0126C 81.968 49.9765 81.9502 49.9263 81.9524 49.8874L 85.9462 50.1102C 86.0734 47.8301 84.186 45.9001 81.8503 46.0851L 82.1661 50.0726ZM 56.1476 81.1218C 57.3259 64.1453 68.6164 51.1436 82.165 50.0727L 81.8498 46.0851C 65.7975 47.3539 53.4324 62.4721 52.1572 80.8449L 56.1476 81.1218ZM 52.2578 48.1326C 52.2578 50.4116 50.4107 52.2585 48.1328 52.2585L 48.1328 56.2585C 52.6205 56.2585 56.2578 52.6201 56.2578 48.1326L 52.2578 48.1326ZM 48.1328 44.0066C 50.4107 44.0066 52.2578 45.8535 52.2578 48.1326L 56.2578 48.1326C 56.2578 43.645 52.6205 40.0066 48.1328 40.0066L 48.1328 44.0066ZM 44.0078 48.1326C 44.0078 45.8535 45.8549 44.0066 48.1328 44.0066L 48.1328 40.0066C 43.6451 40.0066 40.0078 43.645 40.0078 48.1326L 44.0078 48.1326ZM 48.1328 52.2585C 45.8549 52.2585 44.0078 50.4116 44.0078 48.1326L 40.0078 48.1326C 40.0078 52.6201 43.6451 56.2585 48.1328 56.2585L 48.1328 52.2585ZM 44.0078 48.1326C 42.0078 48.1326 40.0078 48.1326 40.0078 48.1326C 40.0078 48.1326 42.0078 48.1326 44.0078 48.1326L 40.0078 48.1326C 42.0078 48.1326 44.0078 48.1326 44.0078 48.1326C 44.0078 48.1326 42.0078 48.1326 40.0078 48.1326L 44.0078 48.1326ZM 48.1328 44.0066C 48.1328 42.0066 48.1328 40.0066 48.1328 40.0066C 48.1328 40.0066 48.1328 42.0066 48.1328 44.0066L 48.1328 40.0066C 48.1328 42.0066 48.1328 44.0066 48.1328 44.0066C 48.1328 44.0066 48.1328 42.0066 48.1328 40.0066L 48.1328 44.0066ZM 48.1328 56.2585C 48.1328 54.2585 48.1328 52.2585 48.1328 52.2585C 48.1328 52.2585 48.1328 54.2585 48.1328 56.2585L 48.1328 52.2585C 48.1328 54.2585 48.1328 56.2585 48.1328 56.2585C 48.1328 56.2585 48.1328 54.2585 48.1328 52.2585L 48.1328 56.2585ZM 52.2578 48.1326C 54.2578 48.1326 56.2578 48.1326 56.2578 48.1326C 56.2578 48.1326 54.2578 48.1326 52.2578 48.1326L 56.2578 48.1326C 54.2578 48.1326 52.2578 48.1326 52.2578 48.1326C 52.2578 48.1326 54.2578 48.1326 56.2578 48.1326L 52.2578 48.1326ZM 81.8503 46.0851L 81.8498 46.0851L 82.165 50.0727C 82.1655 50.0726 82.1659 50.0726 82.1661 50.0726L 81.8503 46.0851ZM 85.9461 50.1121C 85.9461 50.1122 85.9461 50.1116 85.9462 50.1102L 81.9524 49.8874C 81.9524 49.8883 81.9523 49.8901 81.9521 49.8922L 85.9461 50.1121ZM 56.1476 81.1212L 56.1476 81.1218L 52.1572 80.8449C 52.1571 80.8454 52.1571 80.8467 52.157 80.8476L 56.1476 81.1212ZM 56.8767 84.8499C 56.8775 84.8497 56.8785 84.8494 56.879 84.8493L 55.9422 80.9605L 55.9427 80.9604L 56.8767 84.8499ZM 43.8508 80.8476C 43.8508 80.8467 43.8507 80.8454 43.8506 80.8449L 39.8602 81.1218L 39.8602 81.1212L 43.8508 80.8476ZM 39.1291 84.8494L 39.1294 84.8494L 40.0665 80.9608C 40.0664 80.9607 40.066 80.9606 40.0656 80.9606L 39.1291 84.8494ZM 13.8423 50.0726C 13.8423 50.0726 13.8424 50.0726 13.8425 50.0726L 14.1577 46.0851L 14.1576 46.0851L 13.8423 50.0726ZM 10.0573 50.1022C 10.0575 50.1061 10.0577 50.1108 10.0579 50.1131L 14.0518 49.8922C 14.0517 49.8918 14.0518 49.8928 14.0519 49.8945L 10.0573 50.1022ZM 78.9648 34C 78.9648 36 78.9648 38 78.9648 38C 78.9648 38 78.9648 36 78.9648 34L 78.9648 38C 78.9648 36 78.9648 34 78.9648 34C 78.9648 34 78.9648 36 78.9648 38L 78.9648 34ZM 17.043 34C 17.043 36 17.043 38 17.043 38C 17.043 38 17.043 36 17.043 34L 17.043 38C 17.043 36 17.043 34 17.043 34C 17.043 34 17.043 36 17.043 38L 17.043 34ZM 13.4368 32.5487L 13.4365 32.5493L 17.0864 34.1858C 17.0866 34.1855 17.0869 34.1848 17.0872 34.1841L 13.4368 32.5487ZM 78.9201 34.1829C 78.9202 34.1832 78.9199 34.1824 78.9193 34.181L 82.5745 32.5564C 82.5731 32.5533 82.5713 32.5493 82.5705 32.5474L 78.9201 34.1829ZM 48.0039 14C 48.0039 12 48.0039 10 48.0039 10C 48.0039 10 48.0039 12 48.0039 14L 48.0039 10C 48.0039 12 48.0039 14 48.0039 14C 48.0039 14 48.0039 12 48.0039 10L 48.0039 14ZM 48.0039 98C 48.0039 96 48.0039 94 48.0039 94C 48.0039 94 48.0039 96 48.0039 98L 48.0039 94C 48.0039 96 48.0039 98 48.0039 98C 48.0039 98 48.0039 96 48.0039 94L 48.0039 98ZM 98.0078 48C 96.0078 48 94.0078 48 94.0078 48C 94.0078 48 96.0078 48 98.0078 48L 94.0078 48C 96.0078 48 98.0078 48 98.0078 48C 98.0078 48 96.0078 48 94.0078 48L 98.0078 48ZM 2 48C 0 48 -2 48 -2 48C -2 48 0 48 2 48L -2 48C 0 48 2 48 2 48C 2 48 0 48 -2 48L 2 48ZM 48.0039 -2C 48.0039 0 48.0039 2 48.0039 2C 48.0039 2 48.0039 0 48.0039 -2L 48.0039 2C 48.0039 0 48.0039 -2 48.0039 -2C 48.0039 -2 48.0039 0 48.0039 2L 48.0039 -2Z"/>
</defs>
</svg>
